<?xml version="1.0" encoding="UTF-8" standalone="no"?>
<!-- Created with Inkscape (http://www.inkscape.org/) -->

<svg
   xmlns:dc="http://purl.org/dc/elements/1.1/"
   xmlns:cc="http://creativecommons.org/ns#"
   xmlns:rdf="http://www.w3.org/1999/02/22-rdf-syntax-ns#"
   xmlns:svg="http://www.w3.org/2000/svg"
   xmlns="http://www.w3.org/2000/svg"
   xmlns:sodipodi="http://sodipodi.sourceforge.net/DTD/sodipodi-0.dtd"
   xmlns:inkscape="http://www.inkscape.org/namespaces/inkscape"
   width="744.09448819"
   height="1052.3622047"
   id="svg2"
   version="1.1"
   inkscape:version="0.48.4 r9939"
   sodipodi:docname="pressie.svg"
   inkscape:export-filename="/home/kieran/projects/bigfatpaulyj.github.io/images/pressie.png"
   inkscape:export-xdpi="8.2399998"
   inkscape:export-ydpi="8.2399998">
  <defs
     id="defs4">
    <inkscape:perspective
       sodipodi:type="inkscape:persp3d"
       inkscape:vp_x="68.571424 : 780.46681 : 1"
       inkscape:vp_y="0 : 1000 : 0"
       inkscape:vp_z="775.52305 : 743.32395 : 1"
       inkscape:persp3d-origin="372.04724 : 350.78739 : 1"
       id="perspective2985" />
    <clipPath
       clipPathUnits="userSpaceOnUse"
       id="clipPath5568">
      <path
         style="fill:#ffffff;stroke:#000000;stroke-width:0;stroke-linecap:round;stroke-linejoin:round;stroke-miterlimit:4;stroke-dasharray:none"
         d="m 259.59375,316.96875 0,410.125 473.78125,0 0,-410.125 -473.78125,0 z M 515.75,397.125 c 0.82296,-1.4e-4 1.64611,0.0267 2.46875,0.0625 25.4489,2.61941 51.03042,1.59027 76.46875,4.0625 6.86691,-1.0609 14.25716,6.56685 12.59375,16.125 -2.58642,14.05942 -57.64252,35.56487 -65.125,39.15625 11.24449,0.61988 65.9659,-19.44994 78.25,-17.5625 16.60341,-0.79898 30.19206,13.20009 42.9375,25.21875 6.76716,7.97638 16.00934,5.91194 24.40625,5.5625 -2.14762,3.40052 -7.60869,9.88186 -9.0625,16.28125 -0.51129,6.09913 -3.4885,7.58524 -7.6875,6.21875 -18.96517,0.14969 -34.19229,-16.17804 -51.71875,-23.09375 C 585.06237,458.18329 551.20861,478.68649 517.5,484 c -5.6344,-0.26028 -14.45923,4.94199 -17.96875,-3.46875 -3.03247,2.9785 -6.55145,5.06961 -10.28125,5.90625 -26.24785,4.79836 -51.07155,-12.4486 -77.1875,-12.78125 -21.02585,-4.28915 -42.19581,1.04694 -62.03125,9.78125 6.56862,-7.55376 11.8832,-16.56147 16.1875,-26.53125 21.70551,-10.19593 45.11351,-13.66914 68.15625,-9.875 -1.70509,-6.42066 -2.69144,-13.50892 -0.5625,-20 7.08652,-18.53808 24.34419,-23.8429 38.9375,-23.875 13.8603,0.84378 26.88662,-5.44075 40.53125,-5.96875 0.82265,-0.0353 1.64579,-0.0624 2.46875,-0.0625 z m -5.78125,24.03125 c -11.34816,0.24385 -25.00805,4.41904 -32.4375,6.3125 -7.92475,2.01969 -16.45671,6.74031 -14.53125,11.96875 1.92547,5.22845 4.63861,16.27126 47.1875,21.09375 10.60973,-14.62328 21.04092,-21.10693 53.15625,-37.21875 -16.89142,-0.15532 -39.42123,-1.79889 -51.15625,-2.125 -0.73344,-0.0204 -1.46221,-0.0475 -2.21875,-0.0312 z"
         id="path5570"
         inkscape:connector-curvature="0" />
    </clipPath>
  </defs>
  <sodipodi:namedview
     id="base"
     pagecolor="#ffffff"
     bordercolor="#666666"
     borderopacity="1.0"
     inkscape:pageopacity="0.0"
     inkscape:pageshadow="2"
     inkscape:zoom="0.98994949"
     inkscape:cx="657.07097"
     inkscape:cy="510.53405"
     inkscape:document-units="px"
     inkscape:current-layer="layer1"
     showgrid="false"
     inkscape:window-width="1366"
     inkscape:window-height="712"
     inkscape:window-x="0"
     inkscape:window-y="27"
     inkscape:window-maximized="1" />
  <metadata
     id="metadata7">
    <rdf:RDF>
      <cc:Work
         rdf:about="">
        <dc:format>image/svg+xml</dc:format>
        <dc:type
           rdf:resource="http://purl.org/dc/dcmitype/StillImage" />
        <dc:title></dc:title>
      </cc:Work>
    </rdf:RDF>
  </metadata>
  <g
     inkscape:groupmode="layer"
     id="layer2"
     inkscape:label="bg"
     sodipodi:insensitive="true">
    <rect
       style="fill:#000000;fill-rule:evenodd;stroke:#000000;stroke-width:1px;stroke-linecap:butt;stroke-linejoin:miter;stroke-opacity:1"
       id="rect3054"
       width="763.67535"
       height="824.28448"
       x="8.0812206"
       y="22.006586" />
  </g>
  <g
     inkscape:label="Layer 1"
     inkscape:groupmode="layer"
     id="layer1">
    <g
       id="g3879"
       inkscape:export-filename="/home/kieran/projects/bigfatpaulyj.github.io/images/pressie.png"
       inkscape:export-xdpi="19.780001"
       inkscape:export-ydpi="19.780001"
       clip-path="url(#clipPath5568)">
      <path
         style="fill:none;stroke:#ffffff;stroke-width:12;stroke-linecap:round;stroke-linejoin:round;stroke-miterlimit:4;stroke-dasharray:none"
         d="m 515.125,403.46875 c -42.85688,8.83032 -84.63291,23.40935 -124.25,42 -4.66252,4.50962 1.80132,10.0842 6,11.875 38.99753,29.98457 80.68,59.46953 129.125,71.5625 11.57696,-1.35938 19.53067,-11.12942 29.34119,-16.46151 27.96362,-20.64003 52.63497,-45.70668 73.64626,-73.18924 0.60161,-7.62142 -8.96639,-6.70482 -13.67495,-9.28675 -32.77358,-10.93124 -65.89753,-21.77705 -100.1875,-26.5 z"
         id="path3042"
         inkscape:connector-curvature="0" />
      <path
         style="fill:none;stroke:#ffffff;stroke-width:12;stroke-linecap:round;stroke-linejoin:round;stroke-miterlimit:4;stroke-dasharray:none"
         d="m 632.96875,450.0625 c -28.30296,33.04716 -60.4287,62.64781 -96.9375,86.46875 -2.08336,9.76328 -0.32517,20.50884 -0.90625,30.65625 0,37.38542 0,74.77083 0,112.15625 3.71549,5.17474 7.93718,-4.86338 11.43404,-7.04939 32.88393,-34.91753 66.77232,-71.18327 84.73394,-116.3845 5.52313,-22.76709 5.83327,-46.43049 7.28076,-69.7223 -0.22859,-12.14252 0.40834,-24.95324 -2.94874,-36.56256 -1.05471,-0.13679 -1.84755,-0.58929 -2.65625,0.4375 z"
         id="path3044"
         inkscape:connector-curvature="0" />
      <path
         style="fill:none;stroke:#ffffff;stroke-width:12;stroke-linecap:round;stroke-linejoin:round;stroke-miterlimit:4;stroke-dasharray:none"
         d="m 379.6875,458.25 c -5.5978,32.73887 -3.74922,66.61067 1.6875,99.21875 26.92841,44.18819 67.82891,77.0741 109.92218,106.15323 8.71861,7.48578 19.28092,11.64802 29.29657,16.69052 5.74305,4.10248 4.68581,-5.23953 4.53125,-8.6875 0,-44.375 0,-88.75 0,-133.125 -3.18459,-4.05367 -10.09764,-3.37952 -14.7672,-5.57882 -47.78081,-14.50744 -90.98337,-41.60851 -127.6703,-75.04618 -1.19947,-0.67309 -1.99885,-0.49949 -3,0.375 z"
         id="path3046"
         inkscape:connector-curvature="0" />
    </g>
    <g
       inkscape:export-ydpi="18.65"
       inkscape:export-xdpi="18.65"
       inkscape:export-filename="/home/kieran/projects/bigfatpaulyj.github.io/images/pressie.png"
       id="g5546"
       transform="translate(-416.18285,-132.32998)">
      <path
         style="fill:none;stroke:#ffffff;stroke-width:12;stroke-linecap:round;stroke-linejoin:round;stroke-miterlimit:4;stroke-dasharray:none"
         d="m 514,407.8125 c -41.89713,8.7351 -82.70108,23.12003 -121.4375,41.28125 40.86382,31.37741 83.88945,63.37693 134.4375,75.9375 7.48315,-1.6366 12.89398,-7.95812 19.625,-11.34375 30.3602,-20.81171 55.88085,-47.2837 78.875,-76 -35.86366,-12.38346 -72.00289,-24.23076 -109.5,-30.3125 -0.66667,0.14583 -1.33333,0.29167 -2,0.4375 z"
         id="path5548"
         inkscape:connector-curvature="0" />
      <path
         style="fill:none;stroke:#ffffff;stroke-width:12;stroke-linecap:round;stroke-linejoin:round;stroke-miterlimit:4;stroke-dasharray:none"
         d="m 633.59375,452.4375 c -28.16758,32.65022 -60.24803,62.19528 -96.46875,85.75 0,47.05208 0,94.10417 0,141.15625 35.09361,-37.16403 72.21509,-75.04486 91.96875,-123 5.41007,-19.72702 5.18019,-40.57465 7.21264,-60.90433 0.67412,-14.71243 0.32346,-29.59302 -1.77514,-44.12692 l -0.64018,0.76822 -0.29732,0.35678 z"
         id="path5550"
         inkscape:connector-curvature="0" />
      <path
         sodipodi:nodetypes="cccccccc"
         style="fill:none;stroke:#ffffff;stroke-width:12;stroke-linecap:round;stroke-linejoin:round;stroke-miterlimit:4;stroke-dasharray:none"
         d="m 381.25,460.0625 c -4.92964,31.87677 -3.14355,64.58406 1.8125,96.34375 31.07405,49.73293 71.62358,79.37204 119.36241,112.54754 4.88928,3.57257 15.89927,6.99954 20.70009,10.67121 0,-49.70833 0,-91.41667 0,-141.125 -53.19614,-13.17936 -101.52044,-42.46654 -141.78125,-79.125 l -0.0937,0.6875 z"
         id="path5552"
         inkscape:connector-curvature="0" />
    </g>
  </g>
  <g
     inkscape:groupmode="layer"
     id="layer3"
     inkscape:label="ribbon"
     style="display:inline">
    <path
       style="fill:#ffffff;stroke:#000000;stroke-width:0;stroke-miterlimit:4;stroke-dasharray:none"
       d="m 515.625,401.1875 c -20.927,-0.37296 -30.09674,2.83841 -46.40625,6.15625 -16.30951,3.31784 -32.83097,14.01135 -30.40625,31.15625 0.42166,4.53507 1.85576,9.01263 2.96875,13.46875 -23.54525,-4.95652 -48.64775,-2.2222 -70.5,7.9375 -2.11081,5.11119 -4.9483,9.9002 -7.78125,14.65625 18.07692,-6.61775 37.75917,-7.79567 56.6875,-4.5625 24.27064,2.17209 47.12463,17.48202 71.96875,12 4.76713,-1.7264 7.91381,-5.77458 11.53125,-9.09375 -0.80199,4.61303 3.03338,10.49144 8.0625,8.125 33.67627,-3.44838 65.42392,-23.27562 100.11139,-18.2106 15.44476,1.93949 27.68216,12.05727 40.85736,19.3981 7.17021,3.63734 15.30891,6.94697 23.3125,6.21875 0.93016,-5.02697 2.63867,-9.86313 5.71875,-14.09375 -9.05334,0.65529 -17.56612,-3.80977 -22.99527,-10.90179 -11.1521,-10.87007 -25.33235,-23.47085 -42.18076,-20.16593 -25.05144,3.47878 -48.35991,15.11529 -73.63647,17.25522 -3.25882,1.09328 -9.95429,-2.05397 -5.53125,-5.40625 22.65017,-10.8163 47.99748,-18.43769 66.75,-35.9375 4.3562,-6.32985 7.29814,-14.14484 -9.80959,-14.10746 -17.10773,0.0374 -57.79466,-3.51958 -78.72166,-3.89254 z m 0.92411,20.25446 c 18.89383,-0.33015 32.02775,3.7245 58.70089,0.87054 -26.32073,13.10016 -93.42698,17.9104 -61.15625,42.5 -17.3127,-2.71584 -38.8498,0.65055 -51.07143,-13.55804 -4.64419,-5.57094 -3.89536,-13.38047 11.83482,-20.90625 15.73018,-7.52577 22.79813,-8.5761 41.69197,-8.90625 z"
       id="path3863"
       inkscape:connector-curvature="0"
       sodipodi:nodetypes="zzccccccccccccccccczzzccczz"
       inkscape:export-filename="/home/kieran/projects/bigfatpaulyj.github.io/images/pressie.png"
       inkscape:export-xdpi="19.780001"
       inkscape:export-ydpi="19.780001" />
  </g>
</svg>
